<svg xmlns="http://www.w3.org/2000/svg" version="1.1" xmlns:xlink="http://www.w3.org/1999/xlink" width="2084" height="2084"><svg xmlns="http://www.w3.org/2000/svg" version="1.1" xmlns:xlink="http://www.w3.org/1999/xlink" width="2084" height="2084"><svg viewBox="0 0 2084 2084" xmlns="http://www.w3.org/2000/svg" xml:space="preserve" style="fill-rule:evenodd;clip-rule:evenodd;stroke-linejoin:round;stroke-miterlimit:2">
  <path d="M406.043 1846.43C187.499 1678.297 37.566 1424.259 11.41 1130.31-38.58 568.48 382.415 72.24 950.954 22.84c568.54-49.401 1070.71 366.626 1120.7 928.456 49.99 561.831-371.005 1058.07-939.544 1107.47-270 23.46-525.03-58.047-723.631-210.416h615.582c161.291-3.156 297.43-37.48 408.418-102.971 110.987-65.491 195.625-158.599 253.914-279.323 58.288-120.725 87.432-264.726 87.432-432.005 0-154.653-27.547-291.553-82.642-410.699-55.094-119.147-137.736-213.044-247.925-281.691-110.189-68.647-249.921-102.971-419.197-102.971H406.044v1607.74Z" style="fill:#2563eb"></path>
  <path d="m406.043 1846.43 2.435 1.921h615.582c161.291-3.156 297.43-37.48 408.418-102.971 110.987-65.491 195.625-158.599 253.914-279.323 58.288-120.725 87.432-264.726 87.432-432.005 0-154.653-27.547-291.553-82.642-410.699-55.094-119.147-137.736-213.044-247.925-281.691-110.189-68.647-249.921-102.971-419.197-102.971H406.043v1607.74Z" style="fill:#fff"></path>
  <path d="M1036.04 499.082c95.816 0 174.466 21.305 235.948 63.913 61.482 42.609 106.596 103.76 135.341 183.454 28.745 79.694 43.117 175.564 43.117 287.608 0 132.561-17.566 239.871-52.699 321.932-35.133 82.061-85.037 141.635-149.713 178.72-64.676 37.085-141.729 55.628-231.158 55.628H715.054V499.077h320.986Z" style="fill:#2563eb"></path>
  <path d="M406.043 1846.43C187.499 1678.297 37.566 1424.259 11.41 1130.31-38.58 568.48 382.415 72.24 950.954 22.84c568.54-49.401 1070.71 366.626 1120.7 928.456 49.99 561.831-371.005 1058.07-939.544 1107.47-270 23.46-525.03-58.047-723.631-210.416h615.582c161.291-3.156 297.43-37.48 408.418-102.971 110.987-65.491 195.625-158.599 253.914-279.323 58.288-120.725 87.432-264.726 87.432-432.005 0-154.653-27.547-291.553-82.642-410.699-55.094-119.147-137.736-213.044-247.925-281.691-110.189-68.647-249.921-102.971-419.197-102.971H406.044v1607.74Z" style="fill:#855425"></path>
  <path d="m406.043 1846.43 2.435 1.921h615.582c161.291-3.156 297.43-37.48 408.418-102.971 110.987-65.491 195.625-158.599 253.914-279.323 58.288-120.725 87.432-264.726 87.432-432.005 0-154.653-27.547-291.553-82.642-410.699-55.094-119.147-137.736-213.044-247.925-281.691-110.189-68.647-249.921-102.971-419.197-102.971H406.043v1607.74Z" style="fill:#fff"></path>
  <path d="M1036.04 499.082c95.816 0 174.466 21.305 235.948 63.913 61.482 42.609 106.596 103.76 135.341 183.454 28.745 79.694 43.117 175.564 43.117 287.608 0 132.561-17.566 239.871-52.699 321.932-35.133 82.061-85.037 141.635-149.713 178.72-64.676 37.085-141.729 55.628-231.158 55.628H715.054V499.077h320.986Z" style="fill:#855425"></path>
</svg></svg><style>@media (prefers-color-scheme: light) { :root { filter: none; } }
@media (prefers-color-scheme: dark) { :root { filter: none; } }
</style></svg>